# xmcd CD database file
#
# Track frame offsets:
#	150
#	13530
#	26960
#	41503
#
# Disc length: 799 seconds
#
# Revision: 0
# Processed by: cddbd v1.5.1PL0 Copyright (c) Steve Scherf et al.
# Submitted via: CDex 1.51
#
DISCID=29031d04
DTITLE=Red Riders - Red Riders
DYEAR=2004
DGENRE=Rock
TTITLE0=Tune In - Tune Out
TTITLE1=Taking Sides
TTITLE2=We'll Be There Soon
TTITLE3=The Unstoppable
EXTD=YEAR: 2004
EXTT0=
EXTT1=
EXTT2=
EXTT3=
PLAYORDER=
